<svg height="512pt" viewBox="-60 0 512 512.001" width="512pt" xmlns="http://www.w3.org/2000/svg"><path d="m373.984375 377.449219h-356.480469l70.75-259.453125h214.984375zm0 0" fill="#d0fdfa"/><path d="m357.609375 80.011719-75.039063 86.503906v95.960937l-86.824218 1.609376-86.746094 1.609374v-99.078124l-75.117188-86.605469c-8.394531-9.671875-12.527343-22.046875-11.617187-34.832031.910156-12.777344 6.734375-24.441407 16.417969-32.84375 9.683594-8.394532 22.058594-12.515626 34.832031-11.617188 12.785156.910156 24.449219 6.746094 32.84375 16.417969l74.308594 85.65625h30.152343l74.3125-85.65625c8.390626-9.671875 20.058594-15.507813 32.84375-16.417969 12.773438-.910156 25.148438 3.222656 34.832032 11.617188 9.683594 8.402343 15.507812 20.066406 16.417968 32.84375.910157 12.785156-3.222656 25.160156-11.617187 34.832031zm0 0" fill="#25d8f7"/><path d="m282.488281 250.410156v210.515625c0 28.050781-22.816406 50.867188-50.878906 50.867188-13.976563 0-26.660156-5.671875-35.863281-14.835938-9.203125 9.164063-21.890625 14.835938-35.867188 14.835938-28.058594 0-50.878906-22.816407-50.878906-50.867188v-210.515625zm0 0" fill="#2f5897"/><path d="m258.273438 62.53125c0 34.476562-28.050782 62.519531-62.527344 62.519531-34.480469 0-62.53125-28.042969-62.53125-62.519531s28.054687-62.53125 62.53125-62.53125c34.476562 0 62.527344 28.050781 62.527344 62.53125zm0 0" fill="#ffd8a6"/><path d="m373.984375 377.449219h-178.238281v-259.453125h107.492187zm0 0" fill="#b7dff7"/><path d="m357.609375 80.011719-75.039063 86.503906v95.960937l-86.824218 1.609376v-161.292969h15.074218l74.3125-85.65625c8.390626-9.671875 20.058594-15.507813 32.84375-16.417969 12.773438-.910156 25.148438 3.222656 34.832032 11.617188 9.683594 8.402343 15.507812 20.066406 16.417968 32.84375.910157 12.785156-3.222656 25.160156-11.617187 34.832031zm0 0" fill="#00bff0"/><path d="m195.746094 125.050781v-125.050781c34.476562 0 62.53125 28.050781 62.53125 62.53125 0 34.476562-28.054688 62.519531-62.53125 62.519531zm0 0" fill="#ffc172"/><path d="m282.488281 250.410156v210.515625c0 28.050781-22.816406 50.867188-50.878906 50.867188-13.976563 0-26.660156-5.671875-35.863281-14.835938v-246.546875zm0 0" fill="#183158"/><g fill="#25d8f7"><path d="m0 403.898438h30.011719v51.078124h-30.011719zm0 0"/><path d="m0 472.316406h30.011719v28.679688h-30.011719zm0 0"/><path d="m55.355469 403.898438h30.011719v62.082031h-30.011719zm0 0"/><path d="m55.355469 483.324219h30.011719v28.675781h-30.011719zm0 0"/></g><path d="m361.480469 403.898438h30.011719v51.078124h-30.011719zm0 0" fill="#00bff0"/><path d="m361.480469 472.316406h30.011719v28.679688h-30.011719zm0 0" fill="#00bff0"/><path d="m306.125 403.898438h30.011719v62.082031h-30.011719zm0 0" fill="#00bff0"/><path d="m306.125 483.324219h30.011719v28.675781h-30.011719zm0 0" fill="#00bff0"/></svg>